<?xml version="1.0" standalone="no"?>
<!DOCTYPE svg PUBLIC "-//W3C//DTD SVG 20010904//EN"
 "http://www.w3.org/TR/2001/REC-SVG-20010904/DTD/svg10.dtd">
<svg version="1.0" xmlns="http://www.w3.org/2000/svg"
 width="698.000000pt" height="244.000000pt" viewBox="0 0 698.000000 244.000000"
 preserveAspectRatio="xMidYMid meet">

<g transform="translate(0.000000,244.000000) scale(0.100000,-0.100000)"
fill="#000000" stroke="none">
<path d="M5105 2136 c-114 -28 -185 -89 -225 -192 -32 -82 -34 -263 -3 -340
31 -80 78 -131 152 -166 59 -28 77 -32 184 -36 149 -6 237 9 308 51 57 34 102
96 114 155 l7 32 -70 0 -71 0 -23 -42 c-37 -66 -80 -83 -213 -83 -99 0 -116 3
-160 26 -77 39 -99 86 -103 224 -4 105 -2 112 25 165 23 43 39 59 78 80 44 22
61 25 155 24 74 0 116 -5 142 -17 40 -18 75 -57 84 -94 6 -22 11 -23 81 -23
l75 0 -7 33 c-16 71 -68 143 -128 174 -77 40 -295 55 -402 29z"/>
<path d="M3080 1775 l0 -365 65 0 65 0 0 297 c0 163 4 293 8 288 5 -6 57 -140
117 -298 l108 -288 81 3 81 3 110 295 110 294 3 -297 2 -297 75 0 75 0 0 365
0 366 -112 -3 -111 -3 -110 -293 c-60 -161 -113 -289 -118 -285 -4 4 -56 137
-114 296 l-107 287 -114 0 -114 0 0 -365z"/>
<path d="M4080 2080 l0 -60 150 0 150 0 0 -305 0 -305 70 0 70 0 0 305 0 305
150 0 150 0 0 60 0 60 -370 0 -370 0 0 -60z"/>
<path d="M392 1453 c3 -630 4 -639 25 -696 70 -183 196 -310 373 -375 l75 -27
628 -3 627 -3 0 231 0 230 -591 0 c-665 0 -631 -4 -669 75 -19 40 -20 64 -20
623 l0 582 -225 0 -226 0 3 -637z"/>
<path d="M1030 1690 c0 -377 1 -402 20 -454 27 -71 69 -128 127 -171 95 -69
94 -69 541 -73 l402 -3 0 230 0 231 -320 0 -320 0 0 320 0 320 -225 0 -225 0
0 -400z"/>
<path d="M3148 823 c-3 -222 -6 -263 -21 -290 -20 -38 -31 -45 -77 -53 l-35
-5 -3 -64 -3 -63 73 3 c57 3 80 9 107 28 71 51 101 184 101 451 l0 130 175 0
175 0 0 -305 0 -305 75 0 75 0 -2 363 -3 362 -317 3 -316 2 -4 -257z"/>
<path d="M3950 715 l0 -365 83 0 82 0 215 272 215 272 3 -272 2 -272 70 0 70
0 0 365 0 365 -77 0 -78 -1 -215 -272 -215 -273 -3 273 -2 273 -75 0 -75 0 0
-365z"/>
<path d="M4860 715 l0 -365 75 0 75 0 0 155 0 155 215 0 215 0 0 -155 0 -155
75 0 75 0 0 365 0 365 -75 0 -75 0 0 -150 0 -150 -215 0 -215 0 0 150 0 150
-75 0 -75 0 0 -365z"/>
<path d="M5750 715 l0 -365 75 0 75 0 0 155 0 155 53 0 52 0 145 -154 145
-155 94 0 94 -1 -44 48 c-24 26 -100 107 -169 180 -69 73 -127 137 -128 142
-2 6 71 88 162 183 l165 172 -83 3 -83 3 -148 -151 -149 -150 -53 0 -53 0 0
150 0 150 -75 0 -75 0 0 -365z"/>
</g>
</svg>
