<?xml version="1.0" encoding="UTF-8" standalone="no"?>
<svg
   xmlns:dc="http://purl.org/dc/elements/1.1/"
   xmlns:cc="http://creativecommons.org/ns#"
   xmlns:rdf="http://www.w3.org/1999/02/22-rdf-syntax-ns#"
   xmlns:svg="http://www.w3.org/2000/svg"
   xmlns="http://www.w3.org/2000/svg"
   viewBox="0 0 910.66669 1024"
   height="1024"
   width="910.66669"
   xml:space="preserve"
   id="svg2"
   version="1.1"><metadata
     id="metadata8"><rdf:RDF><cc:Work
         rdf:about=""><dc:format>image/svg+xml</dc:format><dc:type
           rdf:resource="http://purl.org/dc/dcmitype/StillImage" /></cc:Work></rdf:RDF></metadata><defs
     id="defs6"><clipPath
       id="clipPath20"
       clipPathUnits="userSpaceOnUse"><path
         id="path18"
         d="M 0,768 H 683 V 0 H 0 Z" /></clipPath></defs><g
     transform="matrix(1.3333333,0,0,-1.3333333,0,1024)"
     id="g10"><path
       id="path12"
       style="fill:#ffffff;fill-opacity:1;fill-rule:nonzero;stroke:none"
       d="M 0,0 H 683 V 768 H 0 Z" /><g
       id="g14"><g
         clip-path="url(#clipPath20)"
         id="g16"><g
           transform="translate(522.834,416.2263)"
           id="g22"><path
             id="path24"
             style="fill:#000000;fill-opacity:1;fill-rule:nonzero;stroke:none"
             d="M 0,0 C 0.115,0.947 0.33,5.032 -4.118,7.235 L -14.432,1.389 c 1.405,-0.832 4.31,-3.064 4.133,-7.226 z M -4.154,8.209 -3.951,8.114 C 1.833,5.407 0.833,-0.295 0.822,-0.352 l -0.037,-0.197 -12.134,-6.878 0.117,0.865 c 0.733,5.399 -4.062,7.452 -4.267,7.537 l -0.818,0.339 z" /></g><g
           transform="translate(527.4121,408.1528)"
           id="g26"><path
             id="path28"
             style="fill:#000000;fill-opacity:1;fill-rule:nonzero;stroke:none"
             d="M 0,0 C 0.394,4.948 -3.22,6.863 -4.092,7.25 L -14.391,1.413 c 3.662,-1.987 4.085,-5.626 4.077,-7.259 z m -4.16,8.206 0.188,-0.07 c 0.055,-0.02 5.461,-2.09 4.812,-8.444 l -0.022,-0.222 -12.165,-6.895 0.129,0.876 c 0.033,0.219 0.735,5.388 -4.273,7.534 l -0.802,0.343 z" /></g><g
           transform="translate(517.4368,425.0178)"
           id="g30"><path
             id="path32"
             style="fill:#000000;fill-opacity:1;fill-rule:nonzero;stroke:none"
             d="m 0,0 1.1,-1.074 -0.605,-0.619 -0.634,0.62 -11.092,-6.287 c 5.042,-3.943 5.093,-6.859 5.001,-7.622 l 0.882,-1.554 c 2.958,-1.829 3.808,-6.528 4.027,-8.291 l 11.214,6.356 -0.242,1.004 0.84,0.203 0.397,-1.637 -12.957,-7.344 -0.047,0.685 c -0.004,0.064 -0.477,6.408 -3.771,8.339 l -0.101,0.059 -1.156,2.04 0.045,0.171 c 0.005,0.024 0.627,2.976 -5.173,7.298 l -0.532,0.396 z" /></g><g
           transform="translate(323.4073,218.759)"
           id="g34"><path
             id="path36"
             style="fill:#000000;fill-opacity:1;fill-rule:nonzero;stroke:none"
             d="M 0,0 C -0.618,-0.001 -1.143,-0.218 -1.576,-0.651 -2.008,-1.085 -2.224,-1.61 -2.223,-2.229 L -5.19,-2.232 c -0.002,1.434 0.503,2.658 1.516,3.674 1.013,1.015 2.236,1.524 3.67,1.525 1.435,0.002 2.66,-0.503 3.675,-1.516 1.015,-1.013 1.523,-2.236 1.525,-3.67 L 5.198,-3.703 C 5.2,-5.138 4.695,-6.363 3.682,-7.377 2.669,-8.393 1.446,-8.901 0.011,-8.903 c -0.618,-10e-4 -1.143,-0.218 -1.575,-0.651 -0.433,-0.434 -0.648,-0.959 -0.648,-1.577 l 0.001,-0.743 6.678,0.009 0.004,-2.968 -9.645,-0.012 -0.005,3.71 c -0.002,1.434 0.503,2.658 1.516,3.674 1.013,1.015 2.236,1.524 3.671,1.525 0.618,0.001 1.143,0.218 1.575,0.652 0.433,0.433 0.648,0.959 0.647,1.577 L 2.229,-2.223 C 2.228,-1.605 2.011,-1.08 1.577,-0.647 1.144,-0.215 0.618,0.001 0,0" /></g><g
           transform="translate(339.2638,218.9219)"
           id="g38"><path
             id="path40"
             style="fill:#820000;fill-opacity:1;fill-rule:nonzero;stroke:none"
             d="m 0,0 -1.752,0.29 c 0.312,1.894 0.99,7.213 0.374,9.061 -0.074,0.224 -0.137,0.289 -0.137,0.29 l 1.251,1.261 C -0.021,10.661 0.166,10.337 0.308,9.913 1.173,7.315 0.122,0.741 0,0" /></g><g
           transform="translate(341.1187,228.4578)"
           id="g42"><path
             id="path44"
             style="fill:#820000;fill-opacity:1;fill-rule:nonzero;stroke:none"
             d="m 0,0 -1.143,-1.36 -1.818,1.529 1.143,1.359 z" /></g><g
           transform="translate(339.475,228.8789)"
           id="g46"><path
             id="path48"
             style="fill:#820000;fill-opacity:1;fill-rule:nonzero;stroke:none"
             d="M 0,0 C 0,0 -0.941,-1.794 1.396,-3.224 L 4.665,-4.653 C 2.794,0.935 0,0 0,0 l -0.043,0.034" /></g><g
           transform="translate(339.0028,206.9078)"
           id="g50"><path
             id="path52"
             style="fill:#820000;fill-opacity:1;fill-rule:nonzero;stroke:none"
             d="M 0,0 C 1.64,0.002 3.039,0.583 4.196,1.743 5.352,2.902 5.93,4.303 5.928,5.943 5.926,7.583 5.345,8.982 4.185,10.139 3.025,11.296 1.632,9.962 -0.008,9.96 -1.649,9.958 -3.054,11.288 -4.211,10.128 -5.368,8.968 -5.945,7.568 -5.943,5.928 -5.941,4.288 -5.36,2.889 -4.2,1.732 -3.041,0.575 -1.641,-0.002 0,0 m 0.004,-2.967 c -2.457,-0.004 -4.556,0.863 -6.298,2.601 -1.741,1.737 -2.613,3.833 -2.616,6.29 -0.004,2.457 0.655,4.792 2.6,6.297 2.68,2.074 4.093,0.061 6.299,-0.091 2.25,-0.156 3.614,2.174 6.289,0.107 C 8.225,10.734 8.892,8.404 8.895,5.947 8.898,3.49 8.031,1.391 6.294,-0.35 4.557,-2.092 2.46,-2.964 0.004,-2.967" /></g><g
           transform="translate(354.5678,218.7987)"
           id="g54"><path
             id="path56"
             style="fill:#000000;fill-opacity:1;fill-rule:nonzero;stroke:none"
             d="m 0,0 c -0.618,-0.001 -1.143,-0.218 -1.576,-0.651 -0.432,-0.434 -0.648,-0.96 -0.647,-1.578 L -5.19,-2.232 c -0.002,1.434 0.503,2.658 1.516,3.674 1.013,1.015 2.236,1.524 3.67,1.525 1.435,0.002 2.66,-0.503 3.675,-1.516 1.015,-1.013 1.523,-2.236 1.525,-3.67 L 5.198,-3.703 C 5.2,-5.138 4.695,-6.363 3.682,-7.377 2.669,-8.393 1.446,-8.901 0.011,-8.903 c -0.618,-10e-4 -1.143,-0.218 -1.575,-0.651 -0.433,-0.434 -0.648,-0.959 -0.648,-1.577 l 0.001,-0.743 6.678,0.009 0.004,-2.968 -9.645,-0.012 -0.005,3.71 c -0.002,1.434 0.503,2.658 1.516,3.674 1.013,1.015 2.236,1.524 3.671,1.525 0.618,0.001 1.143,0.218 1.575,0.652 0.433,0.433 0.648,0.959 0.647,1.577 L 2.229,-2.223 C 2.228,-1.605 2.011,-1.08 1.577,-0.647 1.144,-0.215 0.618,0.001 0,0" /></g><g
           transform="translate(366.4381,218.8138)"
           id="g58"><path
             id="path60"
             style="fill:#000000;fill-opacity:1;fill-rule:nonzero;stroke:none"
             d="M 0,0 C -0.618,-0.001 -1.143,-0.218 -1.576,-0.651 -2.008,-1.085 -2.224,-1.61 -2.223,-2.229 L -5.19,-2.232 c -0.002,1.434 0.503,2.658 1.516,3.674 1.013,1.015 2.236,1.524 3.67,1.525 1.435,0.002 2.66,-0.503 3.675,-1.516 1.015,-1.013 1.523,-2.236 1.525,-3.67 L 5.198,-3.703 C 5.2,-5.138 4.695,-6.363 3.682,-7.377 2.669,-8.393 1.446,-8.901 0.011,-8.903 c -0.618,-10e-4 -1.143,-0.218 -1.575,-0.651 -0.433,-0.434 -0.648,-0.959 -0.648,-1.577 l 0.001,-0.743 6.678,0.009 0.004,-2.968 -9.645,-0.012 -0.005,3.71 c -0.002,1.434 0.503,2.658 1.516,3.674 1.013,1.015 2.236,1.524 3.671,1.525 0.618,0.001 1.143,0.218 1.575,0.652 0.433,0.433 0.648,0.959 0.647,1.577 L 2.229,-2.223 C 2.228,-1.605 2.011,-1.08 1.577,-0.647 1.144,-0.215 0.618,0.001 0,0" /></g><g
           transform="translate(448.3245,569.0254)"
           id="g62"><path
             id="path64"
             style="fill:#000000;fill-opacity:1;fill-rule:nonzero;stroke:none"
             d="m 0,0 h -213.649 l -106.824,-185.025 106.824,-185.026 H 0 l 106.824,185.026 z M -1.636,-2.833 103.553,-185.025 -1.636,-367.218 h -210.377 l -105.189,182.193 105.189,182.192 z" /></g><g
           transform="translate(156.1536,409.8547)"
           id="g66"><path
             id="path68"
             style="fill:#820000;fill-opacity:1;fill-rule:nonzero;stroke:none"
             d="m 0,0 0.779,1.349 11.719,-6.765 -0.974,-1.687 -10.565,6.099 8.822,-9.117 -0.031,-0.053 -0.871,-1.51 -0.584,-1.011 -12.342,3.101 10.599,-6.12 -0.984,-1.704 -11.754,6.786 0.789,1.367 0.195,0.337 1.261,2.184 10.623,-2.677 -7.584,7.859 0.708,1.225 z" /></g><g
           transform="translate(172.3782,413.6005)"
           id="g70"><path
             id="path72"
             style="fill:#820000;fill-opacity:1;fill-rule:nonzero;stroke:none"
             d="m 0,0 1.356,-0.357 -4.459,-7.723 -11.736,6.776 0.646,1.119 0.759,1.313 3.054,5.291 0.97,-0.986 -2.87,-4.971 3.977,-2.296 2.46,4.261 0.668,-0.812 -2.276,-3.942 4.581,-2.644 z" /></g><g
           transform="translate(166.1129,424.481)"
           id="g74"><path
             id="path76"
             style="fill:#820000;fill-opacity:1;fill-rule:nonzero;stroke:none"
             d="m 0,0 c 1.347,-1.03 2.493,-1.908 3.437,-2.636 0.946,-0.727 1.857,-1.438 2.734,-2.133 0.877,-0.696 1.551,-1.236 2.024,-1.619 0.414,-0.35 0.696,-0.709 0.844,-1.08 0.15,-0.37 0.216,-0.728 0.198,-1.073 C 9.219,-8.885 9.16,-9.199 9.061,-9.481 8.961,-9.763 8.81,-10.066 8.607,-10.39 8.4,-9.955 8.153,-9.544 7.864,-9.156 c -0.289,0.388 -0.722,0.834 -1.298,1.341 -0.33,0.301 -0.946,0.814 -1.845,1.539 -0.9,0.724 -1.868,1.5 -2.906,2.328 -1.037,0.827 -2.324,1.851 -3.861,3.07 l 0.051,0.089 0.851,1.474 L 0.394,3.347 1.665,5.549 1.798,5.78 13.534,-0.996 12.13,-3.428 1.548,2.681 Z" /></g><g
           transform="translate(173.5256,439.9435)"
           id="g78"><path
             id="path80"
             style="fill:#820000;fill-opacity:1;fill-rule:nonzero;stroke:none"
             d="m 0,0 0.584,1.012 11.719,-6.766 -1.405,-2.432 -9.038,5.218 6.28,-9.994 -0.912,-1.581 -0.492,-0.852 -11.718,6.766 1.404,2.432 8.735,-5.043 -6.059,9.677 0.082,0.142 z" /></g><g
           transform="translate(179.5462,450.3704)"
           id="g82"><path
             id="path84"
             style="fill:#820000;fill-opacity:1;fill-rule:nonzero;stroke:none"
             d="m 0,0 0.969,-0.986 -1.527,-2.645 10.564,-6.099 -1.404,-2.433 -10.565,6.1 -1.527,-2.646 -1.338,0.347 1.712,2.965 1.404,2.432 z" /></g><g
           transform="translate(195.0702,453.3139)"
           id="g86"><path
             id="path88"
             style="fill:#820000;fill-opacity:1;fill-rule:nonzero;stroke:none"
             d="m 0,0 c -0.13,0.485 -0.668,1.008 -1.614,1.571 -0.946,0.561 -1.871,1.016 -2.775,1.365 -1.605,0.69 -2.832,0.972 -3.678,0.845 -0.979,-0.192 -1.773,-0.61 -2.381,-1.253 -0.436,-0.427 -0.817,-0.869 -1.145,-1.327 -0.328,-0.458 -0.481,-0.875 -0.461,-1.249 0.13,-0.486 0.671,-1.012 1.623,-1.577 0.952,-0.565 1.877,-1.028 2.773,-1.388 1.613,-0.678 2.843,-0.954 3.689,-0.827 0.979,0.192 1.767,0.613 2.363,1.263 0.441,0.409 0.824,0.846 1.149,1.313 C -0.132,-0.796 0.02,-0.376 0,0 m -12.152,3.512 c 0.738,1.279 1.552,2.17 2.442,2.673 0.891,0.504 1.888,0.659 2.991,0.464 C -5.617,6.453 -4.384,5.964 -3.024,5.178 -1.65,4.385 -0.607,3.561 0.107,2.708 0.822,1.853 1.183,0.914 1.192,-0.109 1.201,-1.132 0.837,-2.282 0.098,-3.561 -0.633,-4.828 -1.443,-5.712 -2.334,-6.216 -3.225,-6.72 -4.22,-6.879 -5.321,-6.693 c -1.1,0.185 -2.336,0.674 -3.709,1.466 -1.362,0.786 -2.4,1.611 -3.117,2.475 -0.716,0.863 -1.08,1.807 -1.089,2.829 -0.008,1.024 0.353,2.169 1.084,3.435" /></g><g
           transform="translate(191.1356,470.4861)"
           id="g90"><path
             id="path92"
             style="fill:#820000;fill-opacity:1;fill-rule:nonzero;stroke:none"
             d="M 0,0 0.82,1.421 12.556,-5.355 11.152,-7.788 0.268,-1.504 -2.1,-5.605 8.784,-11.889 7.38,-14.321 l -11.737,6.775 0.646,1.119 0.758,1.314 2.369,4.101 z" /></g><g
           transform="translate(207.4696,474.79)"
           id="g94"><path
             id="path96"
             style="fill:#820000;fill-opacity:1;fill-rule:nonzero;stroke:none"
             d="m 0,0 c -0.13,0.485 -0.668,1.008 -1.614,1.571 -0.946,0.561 -1.871,1.016 -2.775,1.365 -1.605,0.69 -2.832,0.972 -3.678,0.845 -0.979,-0.192 -1.773,-0.61 -2.381,-1.253 -0.436,-0.427 -0.817,-0.87 -1.145,-1.327 -0.327,-0.458 -0.481,-0.875 -0.461,-1.249 0.13,-0.486 0.671,-1.012 1.623,-1.577 0.952,-0.565 1.877,-1.028 2.773,-1.388 1.613,-0.678 2.843,-0.954 3.689,-0.827 0.979,0.192 1.767,0.613 2.363,1.263 0.441,0.409 0.824,0.846 1.149,1.313 C -0.132,-0.796 0.02,-0.376 0,0 m -12.152,3.512 c 0.738,1.279 1.552,2.17 2.443,2.673 0.89,0.504 1.887,0.659 2.99,0.464 C -5.617,6.453 -4.384,5.964 -3.023,5.178 -1.65,4.385 -0.607,3.561 0.107,2.708 0.822,1.853 1.183,0.914 1.192,-0.109 1.201,-1.132 0.837,-2.282 0.098,-3.561 -0.633,-4.828 -1.443,-5.712 -2.334,-6.216 -3.225,-6.72 -4.22,-6.879 -5.321,-6.693 c -1.1,0.185 -2.336,0.674 -3.709,1.466 -1.362,0.786 -2.4,1.611 -3.117,2.475 -0.716,0.863 -1.08,1.807 -1.089,2.83 -0.008,1.023 0.353,2.168 1.084,3.434" /></g><g
           transform="translate(202.696,487.8423)"
           id="g98"><path
             id="path100"
             style="fill:#820000;fill-opacity:1;fill-rule:nonzero;stroke:none"
             d="m 0,0 c 1.347,-1.03 2.493,-1.909 3.437,-2.636 0.946,-0.727 1.857,-1.438 2.734,-2.133 0.877,-0.696 1.551,-1.236 2.024,-1.619 0.414,-0.35 0.696,-0.709 0.844,-1.08 0.15,-0.37 0.216,-0.728 0.198,-1.073 C 9.219,-8.885 9.16,-9.199 9.061,-9.481 8.961,-9.763 8.81,-10.066 8.607,-10.39 8.4,-9.955 8.153,-9.544 7.864,-9.156 c -0.289,0.388 -0.722,0.834 -1.298,1.341 -0.33,0.301 -0.946,0.814 -1.845,1.539 -0.9,0.724 -1.868,1.5 -2.905,2.328 -1.038,0.827 -2.325,1.851 -3.862,3.07 l 0.051,0.089 0.851,1.473 L 0.394,3.347 1.665,5.549 1.798,5.78 13.534,-0.996 12.13,-3.428 1.548,2.681 Z" /></g><g
           transform="translate(215.5975,495.3048)"
           id="g102"><path
             id="path104"
             style="fill:#820000;fill-opacity:1;fill-rule:nonzero;stroke:none"
             d="M 0,0 C -0.118,0.068 -0.243,0.14 -0.373,0.215 -0.84,0.5 -1.366,0.784 -1.952,1.068 -2.538,1.351 -3.085,1.504 -3.592,1.529 -4.099,1.553 -4.486,1.319 -4.754,0.827 -4.978,0.357 -5.102,-0.172 -5.125,-0.758 l 7.084,-4.09 c 0.259,0.229 0.46,0.469 0.603,0.717 0.219,0.378 0.192,0.844 -0.081,1.396 C 2.208,-2.183 1.83,-1.648 1.347,-1.133 0.863,-0.617 0.414,-0.239 0,0 M -5.085,2.344 C -4.474,3.048 -3.779,3.432 -3,3.495 -2.222,3.559 -1.441,3.436 -0.658,3.125 0.126,2.815 0.802,2.496 1.37,2.168 2.21,1.683 2.942,0.941 3.565,-0.058 4.188,-1.057 4.341,-2.049 4.025,-3.034 3.874,-3.405 3.649,-3.835 3.35,-4.325 3.051,-4.816 2.742,-5.296 2.423,-5.767 2.104,-6.238 1.711,-6.781 1.246,-7.395 l -11.736,6.775 1.299,2.209 3.569,-2.06 c -0.082,1.279 0.097,2.217 0.537,2.815" /></g><g
           transform="translate(225.471,506.1335)"
           id="g106"><path
             id="path108"
             style="fill:#820000;fill-opacity:1;fill-rule:nonzero;stroke:none"
             d="M 0,0 0.255,-0.052 C 0.774,-1.394 0.494,-3 -0.586,-4.87 c -0.738,-1.278 -1.551,-2.166 -2.438,-2.664 -0.887,-0.498 -1.881,-0.654 -2.981,-0.468 -1.1,0.185 -2.337,0.674 -3.71,1.467 -1.361,0.786 -2.4,1.611 -3.117,2.474 -0.716,0.864 -1.081,1.804 -1.093,2.821 -0.012,1.017 0.35,2.165 1.089,3.443 1.038,1.799 2.242,2.833 3.611,3.1 L -8.178,2.686 C -8.705,2.596 -9.244,2.405 -9.797,2.118 -10.35,1.829 -10.795,1.53 -11.132,1.219 -11.568,0.793 -11.95,0.35 -12.278,-0.108 c -0.327,-0.458 -0.48,-0.874 -0.46,-1.249 0.13,-0.485 0.668,-1.01 1.614,-1.571 0.946,-0.562 1.874,-1.027 2.782,-1.393 1.613,-0.679 2.836,-0.951 3.671,-0.818 0.991,0.186 1.784,0.603 2.38,1.253 0.423,0.404 0.85,0.931 1.281,1.582 0.43,0.65 0.767,1.418 1.01,2.304" /></g><g
           transform="translate(230.3843,514.9308)"
           id="g110"><path
             id="path112"
             style="fill:#820000;fill-opacity:1;fill-rule:nonzero;stroke:none"
             d="M 0,0 C 0.382,0.032 0.749,0.088 1.103,0.168 1.457,0.248 1.867,0.35 2.334,0.475 2.098,-0.098 1.861,-0.57 1.625,-0.938 1.388,-1.306 1.094,-1.638 0.743,-1.932 0.391,-2.226 -0.019,-2.396 -0.486,-2.441 -0.751,-2.463 -1.279,-2.502 -2.069,-2.558 -2.859,-2.615 -3.706,-2.674 -4.61,-2.736 -5.514,-2.798 -6.285,-2.85 -6.924,-2.891 l 5.485,-3.168 -1.404,-2.432 -11.736,6.776 1.405,2.432 4.917,-2.839 -2.867,6.39 1.087,1.883 2.996,-6.702 c 0.491,0.032 1.227,0.088 2.205,0.171 0.979,0.082 1.939,0.159 2.879,0.231 C -1.015,-0.077 -0.363,-0.028 0,0" /></g><g
           transform="translate(226.6004,531.8707)"
           id="g114"><path
             id="path116"
             style="fill:#820000;fill-opacity:1;fill-rule:nonzero;stroke:none"
             d="m 0,0 0.584,1.012 11.719,-6.766 -1.405,-2.432 -9.038,5.218 6.28,-9.994 -0.912,-1.581 -0.492,-0.852 -11.718,6.766 1.404,2.432 8.735,-5.043 -6.059,9.677 0.082,0.142 z" /></g><g
           transform="translate(232.7925,542.5963)"
           id="g118"><path
             id="path120"
             style="fill:#820000;fill-opacity:1;fill-rule:nonzero;stroke:none"
             d="m 0,0 0.584,1.012 11.719,-6.766 -1.405,-2.432 -9.038,5.218 6.28,-9.994 -0.912,-1.581 -0.492,-0.852 -11.718,6.766 1.404,2.432 8.735,-5.043 -6.059,9.677 0.082,0.142 z m -2.498,0.306 c 0.104,-0.613 0.055,-1.291 -0.145,-2.035 -0.202,-0.745 -0.608,-1.524 -1.22,-2.338 -0.505,-0.655 -0.999,-1.183 -1.482,-1.583 l -0.929,1.672 c 1.175,0.585 2.026,1.301 2.554,2.148 0.529,0.846 0.842,1.573 0.94,2.18 z" /></g><g
           transform="translate(264.4935,557.4626)"
           id="g122"><path
             id="path124"
             style="fill:#820000;fill-opacity:1;fill-rule:nonzero;stroke:none"
             d="M 0,0 -0.369,-1.354 H -5.351 V -13.552 H -8.16 V 0 h 1.292 1.517 z" /></g><g
           transform="translate(274.7592,545.4693)"
           id="g126"><path
             id="path128"
             style="fill:#820000;fill-opacity:1;fill-rule:nonzero;stroke:none"
             d="m 0,0 c 0.355,0.355 0.539,1.083 0.553,2.183 0.014,1.1 -0.054,2.129 -0.204,3.086 -0.206,1.735 -0.574,2.938 -1.108,3.608 -0.656,0.752 -1.414,1.23 -2.275,1.435 -0.588,0.164 -1.162,0.273 -1.722,0.328 -0.561,0.054 -0.998,-0.02 -1.313,-0.226 C -6.424,10.059 -6.608,9.328 -6.622,8.221 -6.636,7.114 -6.575,6.082 -6.438,5.126 -6.219,3.39 -5.843,2.186 -5.31,1.517 -4.654,0.765 -3.895,0.294 -3.034,0.102 -2.46,-0.075 -1.89,-0.188 -1.322,-0.236 -0.755,-0.284 -0.315,-0.205 0,0 m -3.034,12.28 c 1.476,0 2.654,-0.26 3.536,-0.779 C 1.384,10.982 2.015,10.196 2.399,9.143 2.781,8.091 2.973,6.779 2.973,5.207 2.973,3.621 2.781,2.307 2.399,1.261 2.015,0.215 1.384,-0.567 0.502,-1.087 c -0.882,-0.519 -2.06,-0.779 -3.536,-0.779 -1.463,0 -2.634,0.26 -3.516,0.779 -0.882,0.52 -1.518,1.302 -1.907,2.348 -0.389,1.046 -0.585,2.36 -0.585,3.946 0,1.572 0.196,2.884 0.585,3.936 0.389,1.053 1.025,1.839 1.907,2.358 0.882,0.519 2.053,0.779 3.516,0.779" /></g><g
           transform="translate(289.5045,545.5509)"
           id="g130"><path
             id="path132"
             style="fill:#820000;fill-opacity:1;fill-rule:nonzero;stroke:none"
             d="m 0,0 0.082,-0.246 c -0.902,-1.121 -2.433,-1.681 -4.592,-1.681 -1.477,0 -2.652,0.26 -3.527,0.779 -0.874,0.519 -1.507,1.302 -1.896,2.348 -0.389,1.045 -0.584,2.36 -0.584,3.946 0,1.572 0.195,2.884 0.584,3.936 0.389,1.053 1.022,1.839 1.896,2.358 0.875,0.519 2.05,0.779 3.527,0.779 2.077,0 3.574,-0.526 4.489,-1.578 L -1.763,8.427 c -0.342,0.409 -0.776,0.782 -1.302,1.117 -0.527,0.334 -1.008,0.57 -1.445,0.707 -0.588,0.164 -1.162,0.273 -1.722,0.328 C -6.793,10.634 -7.23,10.558 -7.545,10.354 -7.9,9.998 -8.084,9.27 -8.098,8.17 -8.112,7.07 -8.05,6.034 -7.913,5.064 -7.695,3.328 -7.319,2.132 -6.786,1.477 -6.13,0.711 -5.371,0.232 -4.51,0.042 -3.95,-0.122 -3.28,-0.229 -2.501,-0.277 -1.722,-0.324 -0.889,-0.232 0,0" /></g><g
           transform="translate(300.1194,557.4626)"
           id="g134"><path
             id="path136"
             style="fill:#820000;fill-opacity:1;fill-rule:nonzero;stroke:none"
             d="M 0,0 H 1.804 L -5.904,-13.552 H -8.098 L -4.839,-7.811 -9.308,0 h 2.912 l 3.198,-5.659 z" /></g><g
           transform="translate(306.8005,544.9976)"
           id="g138"><path
             id="path140"
             style="fill:#820000;fill-opacity:1;fill-rule:nonzero;stroke:none"
             d="M 0,0 H 4.674 V 11.132 H 1.578 Z M 7.483,0 H 8.364 V -0.062 -1.086 -2.194 H 7.463 l -0.431,1.108 h -2.358 -6.151 -0.84 l -0.43,-1.108 H -3.65 V -1.086 -0.062 0 h 1.477 l 1.968,12.465 h 0.102 1.681 3.096 2.522 0.287 z" /></g><g
           transform="translate(319.5221,548.114)"
           id="g142"><path
             id="path144"
             style="fill:#820000;fill-opacity:1;fill-rule:nonzero;stroke:none"
             d="M 0,0 H 3.547 L 1.763,6.211 Z M 4.675,-4.203 3.752,-0.984 H -0.41 L -1.333,-4.203 H -3.116 L 0.738,9.349 H 0.8 2.542 3.711 L 7.586,-4.203 Z" /></g><g
           transform="translate(334.5109,553.8544)"
           id="g146"><path
             id="path148"
             style="fill:#820000;fill-opacity:1;fill-rule:nonzero;stroke:none"
             d="M 0,0 C 0.068,0.683 -0.095,1.23 -0.492,1.64 -0.888,2.05 -1.36,2.255 -1.906,2.255 h -1.159 -0.318 v -4.572 c 0.944,0 1.722,0.215 2.338,0.646 C -0.43,-1.241 -0.082,-0.684 0,0 m -1.906,3.587 c 1.599,0 2.76,-0.3 3.485,-0.901 C 2.303,2.084 2.679,1.284 2.706,0.287 2.734,-0.301 2.625,-0.868 2.378,-1.415 2.132,-1.961 1.722,-2.412 1.148,-2.768 0.574,-3.123 -0.198,-3.301 -1.168,-3.301 h -2.215 v -6.642 h -2.808 v 13.53 h 2.214 0.594 z" /></g><g
           transform="translate(349.0169,545.5509)"
           id="g150"><path
             id="path152"
             style="fill:#820000;fill-opacity:1;fill-rule:nonzero;stroke:none"
             d="m 0,0 0.082,-0.246 c -0.902,-1.121 -2.433,-1.681 -4.592,-1.681 -1.477,0 -2.652,0.26 -3.527,0.779 -0.874,0.519 -1.507,1.302 -1.896,2.348 -0.389,1.045 -0.584,2.36 -0.584,3.946 0,1.572 0.195,2.884 0.584,3.936 0.389,1.053 1.022,1.839 1.896,2.358 0.875,0.519 2.05,0.779 3.527,0.779 2.077,0 3.574,-0.526 4.489,-1.578 L -1.763,8.427 c -0.342,0.409 -0.776,0.782 -1.302,1.117 -0.527,0.334 -1.008,0.57 -1.445,0.707 -0.588,0.164 -1.162,0.273 -1.722,0.328 C -6.793,10.634 -7.23,10.558 -7.545,10.354 -7.9,9.998 -8.084,9.27 -8.098,8.17 -8.112,7.07 -8.05,6.034 -7.914,5.064 -7.695,3.328 -7.319,2.132 -6.786,1.477 -6.13,0.711 -5.371,0.232 -4.51,0.042 -3.95,-0.122 -3.28,-0.229 -2.501,-0.277 -1.722,-0.324 -0.889,-0.232 0,0" /></g><g
           transform="translate(360.0108,557.4419)"
           id="g154"><path
             id="path156"
             style="fill:#820000;fill-opacity:1;fill-rule:nonzero;stroke:none"
             d="M 0,0 -0.369,-1.333 H -3.424 V -13.531 H -6.232 V -1.333 H -9.287 L -9.656,0 h 3.424 2.808 z" /></g><g
           transform="translate(365.8405,545.2639)"
           id="g158"><path
             id="path160"
             style="fill:#820000;fill-opacity:1;fill-rule:nonzero;stroke:none"
             d="M 0,0 C 0.656,0 1.22,0.236 1.691,0.708 2.163,1.179 2.365,1.811 2.296,2.604 2.173,3.383 1.743,4.022 1.004,4.521 0.266,5.02 -0.67,5.269 -1.804,5.269 V 0 Z M -1.804,10.845 V 6.274 c 0.943,0 1.722,0.215 2.337,0.646 C 1.148,7.35 1.504,7.907 1.599,8.591 1.654,9.274 1.486,9.82 1.097,10.23 0.708,10.641 0.239,10.845 -0.308,10.845 H -1.476 Z M 2.829,5.905 C 3.649,5.549 4.244,5.04 4.612,4.377 4.982,3.714 5.166,3.021 5.166,2.296 5.166,1.203 4.729,0.322 3.854,-0.349 2.979,-1.018 1.661,-1.353 -0.102,-1.353 h -1.702 -2.809 v 13.531 h 2.235 0.574 1.476 c 1.599,0 2.764,-0.301 3.496,-0.902 C 3.899,10.674 4.278,9.875 4.305,8.878 4.332,8.304 4.226,7.75 3.987,7.217 3.748,6.684 3.362,6.246 2.829,5.905" /></g><g
           transform="translate(380.8188,545.2639)"
           id="g162"><path
             id="path164"
             style="fill:#820000;fill-opacity:1;fill-rule:nonzero;stroke:none"
             d="m 0,0 0.369,-1.353 h -8.918 v 13.552 h 1.292 1.517 6.109 L 0,10.866 H -5.74 V 6.274 h 4.92 L -1.189,5.289 H -5.74 V 0 Z" /></g><g
           transform="translate(389.9455,557.4626)"
           id="g166"><path
             id="path168"
             style="fill:#820000;fill-opacity:1;fill-rule:nonzero;stroke:none"
             d="M 0,0 H 2.829 V -13.552 H 0 v 6.643 h -4.736 v -6.643 H -7.545 V 0 h 2.809 V -5.925 H 0 Z" /></g><g
           transform="translate(401.5598,557.4626)"
           id="g170"><path
             id="path172"
             style="fill:#820000;fill-opacity:1;fill-rule:nonzero;stroke:none"
             d="M 0,0 H 2.829 V -13.552 H 0 v 6.643 h -4.736 v -6.643 H -7.545 V 0 h 2.809 V -5.925 H 0 Z" /></g><path
           id="path174"
           style="fill:#820000;fill-opacity:1;fill-rule:nonzero;stroke:none"
           d="m 415.38,557.463 h 2.563 v -13.552 h -2.563 z m -3.977,-8.755 v 0.41 c 0.013,0.56 0,1.162 -0.042,1.805 -0.04,0.642 -0.181,1.192 -0.419,1.65 -0.24,0.458 -0.633,0.673 -1.18,0.646 -0.533,-0.042 -1.059,-0.192 -1.578,-0.451 v -8.181 c 0.341,-0.123 0.649,-0.184 0.923,-0.184 0.437,0 0.83,0.256 1.178,0.769 0.349,0.512 0.622,1.107 0.821,1.784 0.197,0.676 0.297,1.26 0.297,1.752 m -0.493,5.557 c 0.916,-0.165 1.593,-0.572 2.03,-1.22 0.437,-0.65 0.718,-1.388 0.841,-2.215 0.123,-0.826 0.184,-1.568 0.184,-2.224 0,-0.984 -0.276,-1.996 -0.83,-3.034 -0.554,-1.039 -1.33,-1.661 -2.327,-1.866 -0.41,-0.068 -0.902,-0.095 -1.476,-0.082 -0.574,0.014 -1.145,0.044 -1.712,0.092 -0.567,0.048 -1.233,0.113 -1.999,0.195 v 13.552 h 2.563 v -4.121 c 1.066,0.71 1.975,1.018 2.726,0.923" /><g
           transform="translate(428.1449,559.7588)"
           id="g176"><path
             id="path178"
             style="fill:#820000;fill-opacity:1;fill-rule:nonzero;stroke:none"
             d="m 0,0 c -0.479,-0.397 -1.09,-0.694 -1.835,-0.892 -0.745,-0.198 -1.623,-0.236 -2.634,-0.113 -0.821,0.109 -1.525,0.273 -2.112,0.493 l 0.984,1.639 c 1.093,-0.724 2.139,-1.104 3.137,-1.137 0.997,-0.035 1.784,0.058 2.358,0.276 z M 0.984,-2.317 H 2.152 V -15.848 H -0.656 V -5.413 L -6.171,-15.848 H -7.996 -8.98 v 13.531 h 2.809 v -10.087 l 5.351,10.087 h 0.164 z" /></g><g
           transform="translate(453.5481,536.8524)"
           id="g180"><path
             id="path182"
             style="fill:#820000;fill-opacity:1;fill-rule:nonzero;stroke:none"
             d="m 0,0 0.903,-1.562 -15.591,-0.101 -1.097,1.9 6.602,0.047 4.529,7.777 1.456,-2.522 -3.301,-5.599 z" /></g><g
           transform="translate(458.8334,527.6981)"
           id="g184"><path
             id="path186"
             style="fill:#820000;fill-opacity:1;fill-rule:nonzero;stroke:none"
             d="m 0,0 1.414,-2.45 -11.736,-6.776 -1.414,2.45 5.752,3.321 -2.367,4.102 -5.753,-3.321 -1.404,2.432 11.735,6.776 1.405,-2.433 -5.131,-2.963 2.368,-4.101 z" /></g><g
           transform="translate(465.845,515.5139)"
           id="g188"><path
             id="path190"
             style="fill:#820000;fill-opacity:1;fill-rule:nonzero;stroke:none"
             d="m 0,0 0.584,-1.013 -11.718,-6.765 -1.404,2.432 9.037,5.218 -11.795,-0.441 -0.912,1.58 L -16.7,1.863 -4.982,8.629 -3.578,6.196 -12.313,1.153 -0.902,1.562 -0.82,1.42 Z" /></g><g
           transform="translate(467.2905,510.3448)"
           id="g192"><path
             id="path194"
             style="fill:#820000;fill-opacity:1;fill-rule:nonzero;stroke:none"
             d="m 0,0 -3.96,-2.286 c 0.472,-0.817 1.048,-1.383 1.728,-1.701 0.681,-0.317 1.34,-0.347 1.98,-0.087 0.619,0.294 1.009,0.712 1.17,1.254 0.16,0.542 0.104,1.051 -0.17,1.524 C 0.474,-0.822 0.28,-0.485 0.164,-0.284 0.048,-0.082 -0.007,0.012 0,0 m -8.49,-6.985 c 0.327,-0.568 0.814,-0.938 1.458,-1.111 0.644,-0.172 1.292,-0.031 1.944,0.425 0.614,0.495 0.951,1.188 1.014,2.076 0.063,0.889 -0.188,1.825 -0.756,2.807 l -4.563,-2.634 c 0.274,-0.473 0.574,-0.995 0.903,-1.563 m 6.527,0.502 c 0.103,-0.888 -0.041,-1.657 -0.431,-2.308 -0.389,-0.651 -0.897,-1.158 -1.525,-1.52 -0.947,-0.547 -1.929,-0.608 -2.946,-0.186 -1.018,0.423 -1.967,1.397 -2.849,2.924 l -0.85,1.474 -1.404,2.433 L -0.25,3.099 0.867,1.164 1.154,0.667 1.892,-0.612 C 2.691,-1.997 3.013,-3.156 2.858,-4.09 2.703,-5.024 2.2,-5.752 1.35,-6.274 0.867,-6.586 0.334,-6.77 -0.247,-6.83 c -0.582,-0.059 -1.154,0.056 -1.716,0.347" /></g><g
           transform="translate(466.2849,490.3929)"
           id="g196"><path
             id="path198"
             style="fill:#820000;fill-opacity:1;fill-rule:nonzero;stroke:none"
             d="M 0,0 -0.987,-0.996 -5.446,6.727 6.29,13.503 6.936,12.384 7.694,11.071 10.749,5.78 9.41,5.433 6.54,10.404 2.563,8.108 5.023,3.847 3.986,3.675 1.711,7.616 -2.87,4.971 Z" /></g><g
           transform="translate(477.6095,487.9591)"
           id="g200"><path
             id="path202"
             style="fill:#820000;fill-opacity:1;fill-rule:nonzero;stroke:none"
             d="M 0,0 C 0.626,0.283 1.017,0.699 1.174,1.246 1.331,1.795 1.273,2.306 1,2.779 0.726,3.253 0.533,3.587 0.421,3.782 0.308,3.977 0.255,4.069 0.262,4.057 L -3.697,1.771 C -3.226,0.954 -2.65,0.388 -1.97,0.071 -1.289,-0.247 -0.633,-0.27 0,0 M 2.154,3.446 C 2.953,2.06 3.274,0.904 3.115,-0.024 2.957,-0.952 2.452,-1.677 1.602,-2.2 1.107,-2.517 0.56,-2.706 -0.036,-2.766 c -0.596,-0.061 -1.192,0.069 -1.786,0.388 -0.596,0.32 -1.135,0.899 -1.621,1.74 -0.56,0.971 -0.929,1.61 -1.106,1.917 L -10.302,-2.042 -11.706,0.391 0.012,7.156 1.118,5.238 1.416,4.724 Z" /></g><g
           transform="translate(477.6779,471.2351)"
           id="g204"><path
             id="path206"
             style="fill:#820000;fill-opacity:1;fill-rule:nonzero;stroke:none"
             d="m 0,0 -0.172,-0.194 c -1.422,0.221 -2.673,1.267 -3.752,3.137 -0.738,1.278 -1.101,2.426 -1.089,3.443 0.013,1.017 0.374,1.956 1.085,2.816 0.711,0.86 1.752,1.686 3.126,2.479 1.361,0.786 2.595,1.273 3.701,1.463 1.105,0.188 2.102,0.033 2.989,-0.464 0.888,-0.498 1.7,-1.386 2.438,-2.665 C 9.365,8.216 9.658,6.658 9.204,5.338 L 6.415,5.74 C 6.599,6.241 6.705,6.803 6.732,7.426 6.759,8.049 6.722,8.584 6.622,9.031 6.47,9.622 6.278,10.174 6.045,10.687 5.812,11.199 5.528,11.541 5.193,11.71 4.708,11.841 3.985,11.636 3.026,11.098 2.067,10.56 1.201,9.989 0.428,9.385 -0.965,8.328 -1.813,7.404 -2.115,6.615 -2.45,5.664 -2.485,4.768 -2.22,3.926 -2.082,3.359 -1.839,2.726 -1.49,2.028 -1.143,1.329 -0.646,0.654 0,0" /></g><g
           transform="translate(493.5997,467.4402)"
           id="g208"><path
             id="path210"
             style="fill:#820000;fill-opacity:1;fill-rule:nonzero;stroke:none"
             d="m 0,0 0.584,-1.013 -11.718,-6.765 -1.404,2.433 9.037,5.217 -11.795,-0.441 -0.912,1.58 L -16.7,1.863 -4.982,8.629 -3.578,6.196 -12.313,1.153 -0.902,1.562 -0.82,1.42 Z" /></g><g
           transform="translate(499.6361,456.985)"
           id="g212"><path
             id="path214"
             style="fill:#820000;fill-opacity:1;fill-rule:nonzero;stroke:none"
             d="m 0,0 -1.339,-0.347 -1.527,2.645 -10.565,-6.098 -1.404,2.432 10.564,6.099 -1.527,2.645 0.97,0.986 1.712,-2.965 1.404,-2.432 z" /></g><g
           transform="translate(493.9676,442.4458)"
           id="g216"><path
             id="path218"
             style="fill:#820000;fill-opacity:1;fill-rule:nonzero;stroke:none"
             d="M 0,0 -0.987,-0.996 -5.446,6.727 6.29,13.503 6.936,12.384 7.694,11.071 10.749,5.78 9.41,5.433 6.54,10.404 2.563,8.108 5.023,3.847 3.986,3.675 1.711,7.616 -2.87,4.971 Z" /></g><g
           transform="translate(510.1473,438.7788)"
           id="g220"><path
             id="path222"
             style="fill:#820000;fill-opacity:1;fill-rule:nonzero;stroke:none"
             d="m 0,0 -1.339,-0.347 -1.527,2.645 -10.565,-6.098 -1.404,2.432 10.564,6.099 -1.527,2.645 0.97,0.986 1.712,-2.965 1.404,-2.432 z" /></g><g
           transform="translate(255.0232,234.2182)"
           id="g224"><path
             id="path226"
             style="fill:#000000;fill-opacity:1;fill-rule:nonzero;stroke:none"
             d="m 0,0 h 172.954 l 86.475,149.782 -86.475,149.781 H 0 L -86.476,149.782 Z M 174.589,-2.833 H -1.635 l -0.409,0.708 -87.703,151.907 88.112,152.614 h 176.224 l 0.409,-0.708 87.703,-151.906 z" /></g><g
           transform="translate(388.8687,213.3723)"
           id="g228"><path
             id="path230"
             style="fill:#820000;fill-opacity:1;fill-rule:nonzero;stroke:none"
             d="m 0,0 -0.046,3.01 48.811,0.739 93.636,162.553 2.608,-1.503 L 50.52,0.766 Z" /></g><g
           transform="translate(296.492,213.9345)"
           id="g232"><path
             id="path234"
             style="fill:#820000;fill-opacity:1;fill-rule:nonzero;stroke:none"
             d="m 0,0 -52.998,0.193 -94.495,164.044 2.608,1.502 L -51.255,3.197 0.011,3.01 Z" /></g><g
           transform="translate(377.8271,273.374)"
           id="g236"><path
             id="path238"
             style="fill:#820000;fill-opacity:1;fill-rule:nonzero;stroke:none"
             d="m 0,0 c -0.994,-0.659 -0.714,11.926 12.43,22.604 0,0 7.172,-14.518 -8.808,-25.044 C 2.429,-3.262 6.939,3.744 9.389,11.46 10.802,16.613 6.395,4.245 0,0" /></g><g
           transform="translate(385.5239,266.9651)"
           id="g240"><path
             id="path242"
             style="fill:#820000;fill-opacity:1;fill-rule:nonzero;stroke:none"
             d="m 0,0 c -0.822,1.204 14.564,1.068 27.829,-14.821 0,0 -17.625,-9.004 -30.752,10.354 -1.024,1.445 7.612,-3.952 17.083,-6.821 C 20.482,-12.929 5.292,-7.746 0,0" /></g><g
           transform="translate(402.5835,275.4585)"
           id="g244"><path
             id="path246"
             style="fill:#820000;fill-opacity:1;fill-rule:nonzero;stroke:none"
             d="m 0,0 c -0.982,0.852 12.322,4.225 27.369,-6.474 0,0 -13.163,-11.765 -28.877,1.957 C -2.72,-3.503 5.955,-6.199 14.776,-6.526 20.601,-6.508 6.323,-5.482 0,0" /></g><g
           transform="translate(418.6391,283.7531)"
           id="g248"><path
             id="path250"
             style="fill:#820000;fill-opacity:1;fill-rule:nonzero;stroke:none"
             d="m 0,0 c -3.172,-0.254 10.404,-12.297 23.718,4.134 -0.466,1.12 -10.186,9.199 -22.013,-1.899 0,0 10.773,1.462 12.049,0.212 C 13.754,2.447 6.087,0.488 0,0" /></g><g
           transform="translate(398.7645,281.8396)"
           id="g252"><path
             id="path254"
             style="fill:#820000;fill-opacity:1;fill-rule:nonzero;stroke:none"
             d="m 0,0 c -1.318,0.86 -1.492,9.001 -0.975,10.564 0,0 1.782,6.819 7.573,11.17 0,0 8.11,-11.328 -1.527,-22.598 0,0 1.791,6.073 -0.976,10.563 C 4.095,9.699 3.593,1.257 0,0" /></g><g
           transform="translate(415.2557,293.7047)"
           id="g256"><path
             id="path258"
             style="fill:#820000;fill-opacity:1;fill-rule:nonzero;stroke:none"
             d="m 0,0 c 0,0 2.865,5.694 2.617,11.82 -0.247,6.127 -0.178,0.448 -0.178,0.448 0,0 3.307,-8.31 2.139,-10.446 0,0 6.653,7.278 -0.904,18.038 0,0 -9.639,-7.477 -3.674,-19.86" /></g><g
           transform="translate(431.2367,301.13)"
           id="g260"><path
             id="path262"
             style="fill:#820000;fill-opacity:1;fill-rule:nonzero;stroke:none"
             d="m 0,0 c -0.186,-0.083 6.556,9.093 16.376,5.853 0,0 -1.991,-12.09 -15.435,-10.753 0,0 1.847,3.905 6.987,5.691 C 7.928,0.791 7.361,3.304 0,0" /></g><g
           transform="translate(427.0626,311.216)"
           id="g264"><path
             id="path266"
             style="fill:#820000;fill-opacity:1;fill-rule:nonzero;stroke:none"
             d="m 0,0 c 0,0 2.391,4.248 -0.937,10.547 0,0 3.382,-0.714 4.305,-7.379 0,0 4.403,9.649 -7.514,13.957 0,0 -0.449,-11.847 4.146,-17.125" /></g><g
           transform="translate(436.9883,316.5899)"
           id="g268"><path
             id="path270"
             style="fill:#820000;fill-opacity:1;fill-rule:nonzero;stroke:none"
             d="m 0,0 c 0,0 -0.595,6.277 13.077,10.449 0,0 2.266,-12.356 -12.091,-15.245 0,0 -0.345,1.881 3.012,4.888 0,0 2.539,1.299 3.248,3.137 C 7.246,3.229 1.893,1.906 0,0" /></g><g
           transform="translate(441.4664,329.0933)"
           id="g272"><path
             id="path274"
             style="fill:#820000;fill-opacity:1;fill-rule:nonzero;stroke:none"
             d="m 0,0 c 0,0 10.873,1.502 7.774,14.795 0,0 -7.903,-3.606 -8.813,-12.038 0,0 2.973,4.74 5.215,4.516 C 4.176,7.273 4.171,1.832 0,0" /></g><g
           transform="translate(434.8664,331.1938)"
           id="g276"><path
             id="path278"
             style="fill:#820000;fill-opacity:1;fill-rule:nonzero;stroke:none"
             d="m 0,0 c 0.045,-0.235 0.155,13.953 -11.584,12.164 0,0 2.222,-8.626 7.912,-13.222 0,0 0.336,2.504 -1.349,6.442 0,0 4.489,-2.598 5.021,-5.384" /></g><g
           transform="translate(441.1449,343.9114)"
           id="g280"><path
             id="path282"
             style="fill:#820000;fill-opacity:1;fill-rule:nonzero;stroke:none"
             d="m 0,0 c 0,0 9.546,4.3 3.567,14.545 0,0 -6.63,-3.33 -6.278,-12.47 0,0 0.93,2.733 4.052,5.388 C 1.341,7.463 3.296,2.539 0,0" /></g><g
           transform="translate(436.1761,357.0199)"
           id="g284"><path
             id="path286"
             style="fill:#820000;fill-opacity:1;fill-rule:nonzero;stroke:none"
             d="m 0,0 c 0,0 7.365,8.291 -8.865,14.457 0,0 -5.371,-5.769 5.248,-12.899 0,0 1.048,2.435 -0.648,4.815 0,0 4.582,-1.809 4.265,-6.373" /></g><g
           transform="translate(433.6862,349.5156)"
           id="g288"><path
             id="path290"
             style="fill:#820000;fill-opacity:1;fill-rule:nonzero;stroke:none"
             d="m 0,0 c 0.498,-0.377 -0.438,5.302 -11.291,9.399 0,0 -2.8,-7.948 9.46,-12.651 0,0 0.213,2.549 -4.698,5.899 0,0 3.232,-0.155 6.529,-2.647" /></g><g
           transform="translate(305.1729,273.374)"
           id="g292"><path
             id="path294"
             style="fill:#820000;fill-opacity:1;fill-rule:nonzero;stroke:none"
             d="m 0,0 c 0.994,-0.659 0.714,11.926 -12.43,22.604 0,0 -7.172,-14.518 8.808,-25.044 1.193,-0.822 -3.317,6.184 -5.767,13.9 C -10.802,16.613 -6.395,4.245 0,0" /></g><g
           transform="translate(297.4761,266.9651)"
           id="g296"><path
             id="path298"
             style="fill:#820000;fill-opacity:1;fill-rule:nonzero;stroke:none"
             d="m 0,0 c 0.822,1.204 -14.564,1.068 -27.829,-14.821 0,0 17.625,-9.004 30.752,10.354 1.024,1.445 -7.612,-3.952 -17.083,-6.821 C -20.482,-12.929 -5.292,-7.746 0,0" /></g><g
           transform="translate(280.4165,275.4585)"
           id="g300"><path
             id="path302"
             style="fill:#820000;fill-opacity:1;fill-rule:nonzero;stroke:none"
             d="m 0,0 c 0.982,0.852 -12.322,4.225 -27.369,-6.474 0,0 13.163,-11.765 28.877,1.957 C 2.72,-3.503 -5.955,-6.199 -14.776,-6.526 -20.601,-6.508 -6.323,-5.482 0,0" /></g><g
           transform="translate(264.3609,283.7531)"
           id="g304"><path
             id="path306"
             style="fill:#820000;fill-opacity:1;fill-rule:nonzero;stroke:none"
             d="m 0,0 c 3.172,-0.254 -10.404,-12.297 -23.718,4.134 0.466,1.12 10.186,9.199 22.013,-1.899 0,0 -10.773,1.462 -12.049,0.212 0,0 7.667,-1.959 13.754,-2.447" /></g><g
           transform="translate(284.2355,281.8396)"
           id="g308"><path
             id="path310"
             style="fill:#820000;fill-opacity:1;fill-rule:nonzero;stroke:none"
             d="m 0,0 c 1.318,0.86 1.492,9.001 0.975,10.564 0,0 -1.782,6.819 -7.573,11.17 0,0 -8.11,-11.328 1.527,-22.598 0,0 -1.791,6.073 0.976,10.563 0,0 0.502,-8.442 4.095,-9.699" /></g><g
           transform="translate(267.7443,293.7047)"
           id="g312"><path
             id="path314"
             style="fill:#820000;fill-opacity:1;fill-rule:nonzero;stroke:none"
             d="m 0,0 c 0,0 -2.865,5.694 -2.617,11.82 0.247,6.127 0.178,0.448 0.178,0.448 0,0 -3.307,-8.31 -2.139,-10.446 0,0 -6.653,7.278 0.904,18.038 0,0 9.639,-7.477 3.674,-19.86" /></g><g
           transform="translate(251.7633,301.13)"
           id="g316"><path
             id="path318"
             style="fill:#820000;fill-opacity:1;fill-rule:nonzero;stroke:none"
             d="m 0,0 c 0.186,-0.083 -6.556,9.093 -16.376,5.853 0,0 1.991,-12.09 15.435,-10.753 0,0 -1.847,3.905 -6.987,5.691 0,0 0.567,2.513 7.928,-0.791" /></g><g
           transform="translate(255.9374,311.216)"
           id="g320"><path
             id="path322"
             style="fill:#820000;fill-opacity:1;fill-rule:nonzero;stroke:none"
             d="m 0,0 c 0,0 -2.391,4.248 0.937,10.547 0,0 -3.382,-0.714 -4.305,-7.379 0,0 -4.403,9.649 7.514,13.957 C 4.146,17.125 4.595,5.278 0,0" /></g><g
           transform="translate(246.0117,316.5899)"
           id="g324"><path
             id="path326"
             style="fill:#820000;fill-opacity:1;fill-rule:nonzero;stroke:none"
             d="m 0,0 c 0,0 0.595,6.277 -13.077,10.449 0,0 -2.266,-12.356 12.091,-15.245 0,0 0.345,1.881 -3.012,4.888 0,0 -2.539,1.299 -3.248,3.137 0,0 5.353,-1.323 7.246,-3.229" /></g><g
           transform="translate(241.5336,329.0933)"
           id="g328"><path
             id="path330"
             style="fill:#820000;fill-opacity:1;fill-rule:nonzero;stroke:none"
             d="m 0,0 c 0,0 -10.873,1.502 -7.774,14.795 0,0 7.903,-3.606 8.813,-12.038 0,0 -2.973,4.74 -5.215,4.516 0,0 0.006,-5.441 4.176,-7.273" /></g><g
           transform="translate(248.1336,331.1938)"
           id="g332"><path
             id="path334"
             style="fill:#820000;fill-opacity:1;fill-rule:nonzero;stroke:none"
             d="m 0,0 c -0.045,-0.235 -0.155,13.953 11.584,12.164 0,0 -2.222,-8.626 -7.912,-13.222 0,0 -0.336,2.504 1.349,6.442 C 5.021,5.384 0.532,2.786 0,0" /></g><g
           transform="translate(241.8551,343.9114)"
           id="g336"><path
             id="path338"
             style="fill:#820000;fill-opacity:1;fill-rule:nonzero;stroke:none"
             d="m 0,0 c 0,0 -9.546,4.3 -3.567,14.545 0,0 6.63,-3.33 6.278,-12.47 0,0 -0.93,2.733 -4.052,5.388 0,0 -1.955,-4.924 1.341,-7.463" /></g><g
           transform="translate(246.8239,357.0199)"
           id="g340"><path
             id="path342"
             style="fill:#820000;fill-opacity:1;fill-rule:nonzero;stroke:none"
             d="m 0,0 c 0,0 -7.365,8.291 8.865,14.457 0,0 5.371,-5.769 -5.248,-12.899 0,0 -1.048,2.435 0.648,4.815 C 4.265,6.373 -0.317,4.564 0,0" /></g><g
           transform="translate(249.3139,349.5156)"
           id="g344"><path
             id="path346"
             style="fill:#820000;fill-opacity:1;fill-rule:nonzero;stroke:none"
             d="m 0,0 c -0.498,-0.377 0.438,5.302 11.291,9.399 0,0 2.8,-7.948 -9.46,-12.651 0,0 -0.213,2.549 4.698,5.899 C 6.529,2.647 3.297,2.492 0,0" /></g><g
           transform="translate(317.1256,256.9522)"
           id="g348"><path
             id="path350"
             style="fill:#820000;fill-opacity:1;fill-rule:nonzero;stroke:none"
             d="m 0,0 h 9.008 l 4.504,7.801 -4.504,7.801 H 0 L -4.504,7.801 Z M 10.295,-2.229 H -1.287 l -5.791,10.03 5.791,10.03 h 11.582 l 5.791,-10.03 z" /></g><g
           transform="translate(337.9933,242.0929)"
           id="g352"><path
             id="path354"
             style="fill:#820000;fill-opacity:1;fill-rule:nonzero;stroke:none"
             d="m 0,0 h 9.008 l 4.504,7.801 -4.504,7.801 H 0 L -4.504,7.801 Z M 10.295,-2.229 H -1.287 l -5.791,10.03 5.791,10.03 h 11.582 l 5.791,-10.03 z" /></g><g
           transform="translate(359.5394,256.9522)"
           id="g356"><path
             id="path358"
             style="fill:#820000;fill-opacity:1;fill-rule:nonzero;stroke:none"
             d="m 0,0 h 9.008 l 4.504,7.801 -4.504,7.801 H 0 L -4.504,7.801 Z M 10.295,-2.229 H -1.287 l -5.791,10.03 5.791,10.03 h 11.582 l 5.791,-10.03 z" /></g><g
           transform="translate(373.695,317.56)"
           id="g360"><path
             id="path362"
             style="fill:#000000;fill-opacity:1;fill-rule:nonzero;stroke:none"
             d="M 0,0 C 0.014,0.028 0.028,0.057 0.043,0.085" /></g><g
           transform="translate(464.2584,451.0918)"
           id="g364"><path
             id="path366"
             style="fill:#000000;fill-opacity:1;fill-rule:nonzero;stroke:none"
             d="m 0,0 c 0,0 -12.174,23.566 -57.479,19.48 0,0 -27.61,-4.738 -54.785,-22.086 -27.175,-17.347 -37.088,-22.738 -37.088,-22.738 0,0 -53.046,-35.913 -81.524,-15.433 -28.479,20.48 -3.782,36.479 -3.782,36.479 0,0 33.306,22.609 70.784,-2.611 0,0 -16.001,-11.912 -23.436,-15.956 -7.435,-4.043 -18.739,-5.695 -18.739,-5.695 0,0 20.174,0.695 31.305,7.391 11.131,6.695 22.349,10.869 22.349,10.869 0,0 7.435,4.043 11.87,3.565 0,0 -32.783,35.48 -89.002,18.394 0,0 -48.437,-23.13 -10.785,-53.392 37.653,-30.263 106.612,20.084 106.612,20.084 l 34.654,20.13 c 0,0 34.741,19.365 60.719,15.594 25.979,-3.77 30.153,-14.988 30.153,-14.988 0,0 12.043,-19.783 -19.132,-30.957 -31.175,-11.173 -59.697,10.568 -59.697,10.568 0,0 15.871,15.695 43.567,17.912 0,0 -3.896,3.159 -35.862,-3.376 0,0 -14.27,-7.188 -33.01,-12.883 0,0 31.087,-22.915 43.783,-25.002 0,0 31.87,-9.001 56.567,6.998 C 12.739,-21.653 0,0 0,0" /></g><g
           transform="translate(338.808,286.2965)"
           id="g368"><path
             id="path370"
             style="fill:#000000;fill-opacity:1;fill-rule:nonzero;stroke:none"
             d="M 0,0 3.626,-13.4 6.971,0 Z" /></g><g
           transform="translate(319.1188,362.4907)"
           id="g372"><path
             id="path374"
             style="fill:#000000;fill-opacity:1;fill-rule:nonzero;stroke:none"
             d="m 0,0 c 0,0 37.512,-34.413 60.695,-16.014 0.458,0.391 1.091,2.617 1.485,2.972 2.163,10.406 4.602,20.265 4.458,28.976 C 66.24,15.678 64.778,14.877 64.309,14.661 54.308,8.012 23.379,-8.312 0,0" /></g><g
           transform="translate(326.4245,380.5584)"
           id="g376"><path
             id="path378"
             style="fill:#000000;fill-opacity:1;fill-rule:nonzero;stroke:none"
             d="m 0,0 c 0,0 43.191,-10.527 57.004,-4.15 0.477,0.317 1.207,1.004 1.586,1.273 -0.517,6.732 -2.418,12.55 -5.163,18.11 -1.528,3.095 -3.816,6.137 -5.982,8.637 C 44.754,16.013 31.85,-0.317 0,0" /></g><g
           transform="translate(372.5142,320.6427)"
           id="g380"><path
             id="path382"
             style="fill:#000000;fill-opacity:1;fill-rule:nonzero;stroke:none"
             d="m 0,0 c -7.128,-4.858 -22.366,-14.261 -31.34,-12.589 0,0 9.522,-12.437 15.607,-15.07 0.25,0.249 0.498,0.463 0.743,0.743 C -8.732,-18.314 -3.845,-9.085 0,0" /></g><g
           transform="translate(332.2465,332.4022)"
           id="g384"><path
             id="path386"
             style="fill:#000000;fill-opacity:1;fill-rule:nonzero;stroke:none"
             d="m 0,0 c 0,0 27.768,-15.951 40.137,-11.929 4.96,9.342 6.407,18.904 8.916,27.49 -0.417,-0.375 0.499,0.381 0.072,0.042 C 39.893,7.738 18.164,-6.589 0,0" /></g><g
           transform="translate(354.2443,293.3663)"
           id="g388"><path
             id="path390"
             style="fill:#801810;fill-opacity:1;fill-rule:nonzero;stroke:none"
             d="m 0,0 c -3.826,-3.564 -7.875,-5.433 -12.039,-5.588 v 0.002 c -0.215,-0.011 -0.429,-0.012 -0.643,-0.014 -0.221,10e-4 -0.442,0.003 -0.663,0.014 v -0.002 c -4.082,0.153 -8.043,1.967 -11.796,5.4 -21.13,19.333 -28.765,80.621 -28.788,81.16 0,23.956 18.113,42.721 41.235,42.721 23.121,0 41.232,-18.762 41.235,-42.715 C 28.444,76.65 20.021,18.647 0,0 m -12.694,127.408 c -25.205,0 -44.95,-20.397 -44.95,-46.436 0,-1.085 2.047,-16.9 6.66,-34.706 6.152,-23.751 13.83,-40.14 22.822,-48.715 4.784,-4.561 9.954,-6.869 15.382,-6.869 0.025,0 0.049,10e-4 0.074,10e-4 0.044,0 0.088,-0.003 0.131,-0.003 5.425,0 10.594,2.304 15.378,6.857 22.147,21.08 29.453,82.881 29.453,83.435 0,26.039 -19.744,46.436 -44.95,46.436" /></g><g
           transform="translate(358.9528,480.2842)"
           id="g392"><path
             id="path394"
             style="fill:#801810;fill-opacity:1;fill-rule:nonzero;stroke:none"
             d="m 0,0 h -5.479 c 4.933,-5.889 5.709,-10.082 5.038,-12.91 -1.775,-7.481 -14.908,-11.9 -20.122,-11.792 -8.36,0.913 -18.571,3.337 -20.396,9.683 -1.242,4.319 1.37,9.807 5.221,15.019 h -5.333 c -3.42,-5.324 -5.536,-11.064 -4.055,-16.215 2.016,-7.013 10.217,-11.328 24.376,-12.827 l 0.264,-0.028 0.263,0.036 c 1.159,-0.234 21.134,3.08 23.998,15.115 C 4.788,-9.661 3.534,-5.04 0,0" /></g><g
           transform="translate(359.7204,482.2207)"
           id="g396"><path
             id="path398"
             style="fill:#000000;fill-opacity:1;fill-rule:nonzero;stroke:none"
             d="M 0,0 H -42.117 V 14.983 L -20.479,9.665 0,14.657 Z M -20.477,27.556 21.093,22.23 -20.476,12.097 -61.706,22.23 Z M 21.217,14.8 c 0,0.225 -0.043,0.44 -0.116,0.64 l -0.903,4.14 13.84,3.374 -54.516,6.984 -54.071,-6.984 30.069,-7.39 V -2.363 H 2.363 v 17.596 l 14.269,3.478 0.878,-4.028 c 0.061,-0.971 0.865,-1.739 1.851,-1.739 1.025,0 1.856,0.831 1.856,1.856" /></g><g
           transform="translate(378.2313,494.8926)"
           id="g400"><path
             id="path402"
             style="fill:#000000;fill-opacity:1;fill-rule:nonzero;stroke:none"
             d="m 0,0 c 0.512,-10.831 1.63,-9.177 1.873,-9.302 l 5.213,2.348 C 6.924,-4.166 2.802,0.768 2.802,0.768 1.873,-0.808 0,0 0,0" /></g></g></g></g></svg>